<svg width="232" height="227" viewBox="0 0 232 227" fill="none" xmlns="http://www.w3.org/2000/svg">
    <path
        d="M231.791 113.44C231.791 121.898 221.2 129.052 219.394 136.966C217.531 145.133 223.916 156.151 220.344 163.522C216.719 171.016 204.056 172.891 198.9 179.324C193.744 185.758 194.685 198.5 188.194 203.643C181.702 208.785 169.523 205.035 162.016 208.652C154.619 212.189 149.969 224.092 141.77 225.949C133.832 227.749 124.488 219.091 116 219.091C107.512 219.091 98.1678 227.749 90.2301 225.949C82.0306 224.092 77.3629 212.207 69.9843 208.652C62.4414 205.035 50.2531 208.785 43.8062 203.643C37.3593 198.5 38.2822 185.771 33.0998 179.324C27.9174 172.878 15.281 171.016 11.656 163.522C8.08422 156.151 14.469 145.133 12.6055 136.966C10.7996 129.052 0.208618 121.898 0.208618 113.44C0.208618 104.981 10.7996 97.8273 12.6055 89.9128C14.469 81.7463 8.08422 70.7279 11.656 63.3572C15.281 55.8628 27.9441 53.9881 33.0998 47.5548C38.2556 41.1215 37.3149 28.3788 43.8062 23.2366C50.2975 18.0944 62.4769 21.8438 69.9843 18.227C77.3807 14.6898 82.0306 2.78715 90.2301 0.930119C98.1678 -0.869431 107.512 7.78787 116 7.78787C124.488 7.78787 133.832 -0.869431 141.77 0.930119C149.969 2.78715 154.637 14.6721 162.016 18.227C169.559 21.8438 181.747 18.0944 188.194 23.2366C194.641 28.3788 193.718 41.1083 198.9 47.5548C204.082 54.0014 216.719 55.8628 220.344 63.3572C223.894 70.7279 217.531 81.7463 219.394 89.9128C221.2 97.8273 231.791 104.981 231.791 113.44Z"
        fill="#E6D7FF" />
</svg>