<svg width="1280" height="16" viewBox="0 0 1280 16" fill="none" xmlns="http://www.w3.org/2000/svg">
    <path
        d="M0 1C16.8558 1 16.8558 15 33.6755 15C50.4951 15 50.5312 1 67.3509 1C84.1706 1 84.2068 15 101.027 15C117.846 15 117.882 1 134.708 1C151.534 1 151.564 15 168.383 15C185.203 15 185.239 1 202.059 1C218.879 1 218.915 15 235.735 15C252.554 15 252.59 1 269.41 1C286.23 1 286.266 15 303.091 15C319.917 15 319.947 1 336.767 1C353.587 1 353.623 15 370.443 15C387.262 15 387.298 1 404.124 1C420.95 1 420.98 15 437.8 15C454.619 15 454.655 1 471.475 1C488.295 1 488.331 15 505.156 15C521.982 15 522.012 1 538.832 1C555.652 1 555.688 15 572.508 15C589.327 15 589.363 1 606.189 1C623.015 1 623.045 15 639.864 15C656.684 15 656.72 1 673.576 1C690.432 1 690.432 15 707.252 15C724.071 15 724.107 1 740.927 1C757.747 1 757.783 15 774.639 15C791.495 15 791.495 1 808.314 1C825.134 1 825.17 15 841.99 15C858.809 15 858.846 1 875.665 1C892.485 1 892.521 15 909.377 15C926.233 15 926.233 1 943.052 1C959.872 1 959.908 15 976.734 15C993.56 15 993.59 1 1010.41 1C1027.23 1 1027.27 15 1044.12 15C1060.98 15 1060.98 1 1077.83 1C1094.69 1 1094.69 15 1111.51 15C1128.33 15 1128.36 1 1145.19 1C1162.02 1 1162.05 15 1178.9 15C1195.76 15 1195.76 1 1212.58 1C1229.4 1 1229.43 15 1246.29 15C1263.14 15 1263.14 1 1280 1"
        stroke="#2C2932" stroke-width="2" stroke-miterlimit="10" />
</svg>